<mxfile host="Electron" modified="2024-03-21T06:53:47.055Z" agent="Mozilla/5.0 (Macintosh; Intel Mac OS X 10_15_7) AppleWebKit/537.36 (KHTML, like Gecko) draw.io/21.6.5 Chrome/114.0.5735.243 Electron/25.3.1 Safari/537.36" etag="2oXTTU5jJV18TPFI4bVD" version="21.6.5" type="device" pages="2">
  <diagram id="l-nFY3qblL5g22VaTM4P" name="Cloud">
    <mxGraphModel dx="954" dy="622" grid="1" gridSize="10" guides="1" tooltips="1" connect="1" arrows="1" fold="1" page="1" pageScale="1" pageWidth="850" pageHeight="1100" math="0" shadow="0">
      <root>
        <mxCell id="0" />
        <mxCell id="1" parent="0" />
        <mxCell id="mCJeqh7XSX11L58by9xV-13" value="Cloud" style="html=1;verticalLabelPosition=middle;align=center;labelBackgroundColor=#ffffff;verticalAlign=bottom;strokeWidth=1;strokeColor=#000000;shadow=0;dashed=0;shape=mxgraph.ios7.icons.cloud;fillColor=#FFFFFF;labelPosition=center;fontStyle=1" parent="1" vertex="1">
          <mxGeometry x="290" width="500" height="390" as="geometry" />
        </mxCell>
        <mxCell id="mCJeqh7XSX11L58by9xV-5" value="" style="fontColor=#0066CC;verticalAlign=top;verticalLabelPosition=bottom;labelPosition=center;align=center;html=1;outlineConnect=0;fillColor=#CCCCCC;strokeColor=#000000;gradientColor=none;gradientDirection=north;strokeWidth=2;shape=mxgraph.networks.security_camera;" parent="1" vertex="1">
          <mxGeometry x="41.300000000000004" y="400" width="50" height="40" as="geometry" />
        </mxCell>
        <mxCell id="mCJeqh7XSX11L58by9xV-8" value="WAN / Internet" style="ellipse;shape=cloud;whiteSpace=wrap;html=1;strokeColor=#000000;fillColor=#FFFFFF;" parent="1" vertex="1">
          <mxGeometry x="110" y="174.73000000000002" width="180" height="110" as="geometry" />
        </mxCell>
        <mxCell id="mCJeqh7XSX11L58by9xV-9" value="Devices" style="text;html=1;resizable=0;autosize=1;align=center;verticalAlign=middle;points=[];fillColor=none;strokeColor=none;rounded=0;" parent="1" vertex="1">
          <mxGeometry x="36.19999999999999" y="60" width="70" height="30" as="geometry" />
        </mxCell>
        <mxCell id="mCJeqh7XSX11L58by9xV-11" value="IaaS" style="rounded=0;whiteSpace=wrap;html=1;strokeColor=#000000;fillColor=#FFFFFF;verticalAlign=bottom;fontStyle=1" parent="1" vertex="1">
          <mxGeometry x="410" y="290" width="260" height="80" as="geometry" />
        </mxCell>
        <mxCell id="mCJeqh7XSX11L58by9xV-14" value="PaaS" style="rounded=0;whiteSpace=wrap;html=1;strokeColor=#000000;fillColor=#FFFFFF;verticalAlign=bottom;fontStyle=1" parent="1" vertex="1">
          <mxGeometry x="410" y="210" width="260" height="70" as="geometry" />
        </mxCell>
        <mxCell id="mCJeqh7XSX11L58by9xV-15" value="SaaS" style="rounded=0;whiteSpace=wrap;html=1;strokeColor=#000000;fillColor=#FFFFFF;verticalAlign=bottom;fontStyle=1" parent="1" vertex="1">
          <mxGeometry x="410" y="120" width="260" height="79.73" as="geometry" />
        </mxCell>
        <mxCell id="mCJeqh7XSX11L58by9xV-23" value="Compute" style="fontColor=#000000;verticalAlign=bottom;verticalLabelPosition=top;labelPosition=center;align=center;html=1;outlineConnect=0;fillColor=#CCCCCC;strokeColor=#000000;gradientColor=none;gradientDirection=north;strokeWidth=2;shape=mxgraph.networks.server;" parent="1" vertex="1">
          <mxGeometry x="515" y="310" width="50" height="40" as="geometry" />
        </mxCell>
        <mxCell id="mCJeqh7XSX11L58by9xV-25" value="Storage" style="fontColor=#000000;verticalAlign=bottom;verticalLabelPosition=top;labelPosition=center;align=center;html=1;outlineConnect=0;fillColor=#CCCCCC;strokeColor=#000000;gradientColor=none;gradientDirection=north;strokeWidth=2;shape=mxgraph.networks.storage;" parent="1" vertex="1">
          <mxGeometry x="600" y="310" width="50" height="40" as="geometry" />
        </mxCell>
        <mxCell id="mCJeqh7XSX11L58by9xV-27" value="" style="fontColor=#0066CC;verticalAlign=top;verticalLabelPosition=bottom;labelPosition=center;align=center;html=1;outlineConnect=0;fillColor=#CCCCCC;strokeColor=#000000;gradientColor=none;gradientDirection=north;strokeWidth=2;shape=mxgraph.networks.laptop;" parent="1" vertex="1">
          <mxGeometry x="26.1" y="190" width="90.2" height="50" as="geometry" />
        </mxCell>
        <mxCell id="mCJeqh7XSX11L58by9xV-29" value="" style="fontColor=#0066CC;verticalAlign=top;verticalLabelPosition=bottom;labelPosition=center;align=center;html=1;outlineConnect=0;fillColor=#CCCCCC;strokeColor=#000000;gradientColor=none;gradientDirection=north;strokeWidth=2;shape=mxgraph.networks.pc;" parent="1" vertex="1">
          <mxGeometry x="16.3" y="104.73" width="100" height="70" as="geometry" />
        </mxCell>
        <mxCell id="mCJeqh7XSX11L58by9xV-30" value="Network" style="fontColor=#000000;verticalAlign=bottom;verticalLabelPosition=top;labelPosition=center;align=center;html=1;outlineConnect=0;fillColor=#CCCCCC;strokeColor=#000000;gradientColor=none;gradientDirection=north;strokeWidth=2;shape=mxgraph.networks.load_balancer;" parent="1" vertex="1">
          <mxGeometry x="420" y="310" width="80" height="20" as="geometry" />
        </mxCell>
        <mxCell id="mCJeqh7XSX11L58by9xV-33" value="" style="fontColor=#000000;verticalAlign=top;verticalLabelPosition=bottom;labelPosition=center;align=center;html=1;outlineConnect=0;fillColor=#CCCCCC;strokeColor=#000000;gradientColor=none;gradientDirection=north;strokeWidth=2;shape=mxgraph.networks.mobile;" parent="1" vertex="1">
          <mxGeometry x="55.2" y="254.9" width="30" height="60" as="geometry" />
        </mxCell>
        <mxCell id="mCJeqh7XSX11L58by9xV-35" value="" style="fontColor=#0066CC;verticalAlign=top;verticalLabelPosition=bottom;labelPosition=center;align=center;html=1;outlineConnect=0;fillColor=#CCCCCC;strokeColor=#000000;gradientColor=none;gradientDirection=north;strokeWidth=2;shape=mxgraph.networks.tablet;" parent="1" vertex="1">
          <mxGeometry x="30.2" y="330" width="86.1" height="50" as="geometry" />
        </mxCell>
        <mxCell id="mCJeqh7XSX11L58by9xV-37" value="Database" style="sketch=0;html=1;aspect=fixed;strokeColor=default;shadow=0;align=center;verticalAlign=bottom;fillColor=#E6E6E6;shape=mxgraph.gcp2.database_3;strokeWidth=1;fontColor=#000000;labelPosition=center;verticalLabelPosition=top;" parent="1" vertex="1">
          <mxGeometry x="610" y="228.57" width="30" height="42.86" as="geometry" />
        </mxCell>
        <mxCell id="mCJeqh7XSX11L58by9xV-41" value="Middleware" style="sketch=0;aspect=fixed;pointerEvents=1;shadow=0;dashed=0;html=1;strokeColor=none;labelPosition=center;verticalLabelPosition=top;verticalAlign=middle;align=center;fillColor=#000000;shape=mxgraph.azure.queue_generic;strokeWidth=1;fontColor=#000000;" parent="1" vertex="1">
          <mxGeometry x="503.34" y="234" width="73.33" height="22" as="geometry" />
        </mxCell>
        <mxCell id="mCJeqh7XSX11L58by9xV-47" value="" style="sketch=0;outlineConnect=0;fontColor=#232F3E;gradientColor=none;strokeColor=#232F3E;fillColor=#ffffff;dashed=0;verticalLabelPosition=top;verticalAlign=bottom;align=center;html=1;fontSize=12;fontStyle=0;aspect=fixed;shape=mxgraph.aws4.resourceIcon;resIcon=mxgraph.aws4.container_2;strokeWidth=1;labelPosition=center;" parent="1" vertex="1">
          <mxGeometry x="430" y="215" width="60" height="60" as="geometry" />
        </mxCell>
        <mxCell id="mCJeqh7XSX11L58by9xV-50" value="Runtime" style="text;html=1;resizable=0;autosize=1;align=center;verticalAlign=middle;points=[];fillColor=none;strokeColor=none;rounded=0;strokeWidth=1;fontColor=#000000;" parent="1" vertex="1">
          <mxGeometry x="425" y="204.73000000000002" width="70" height="30" as="geometry" />
        </mxCell>
        <mxCell id="mCJeqh7XSX11L58by9xV-51" value="Applications" style="sketch=0;pointerEvents=1;shadow=0;dashed=0;html=1;strokeColor=none;labelPosition=center;verticalLabelPosition=top;verticalAlign=bottom;align=center;fillColor=#505050;shape=mxgraph.mscae.intune.apps;strokeWidth=1;fontColor=#000000;" parent="1" vertex="1">
          <mxGeometry x="517.5" y="140" width="45" height="40" as="geometry" />
        </mxCell>
      </root>
    </mxGraphModel>
  </diagram>
  <diagram id="ewPVLfD4Bx0a2tldf8Tx" name="Stack">
    <mxGraphModel dx="954" dy="622" grid="1" gridSize="10" guides="1" tooltips="1" connect="1" arrows="1" fold="1" page="1" pageScale="1" pageWidth="1100" pageHeight="850" math="0" shadow="0">
      <root>
        <mxCell id="0" />
        <mxCell id="1" parent="0" />
        <mxCell id="1LpmoRn-5bR33ExqMXOr-31" value="" style="ellipse;shape=cloud;whiteSpace=wrap;html=1;" parent="1" vertex="1">
          <mxGeometry x="220" y="30" width="720" height="450" as="geometry" />
        </mxCell>
        <mxCell id="1LpmoRn-5bR33ExqMXOr-1" value="Client Side&lt;br&gt;PC / Phone / Device" style="rounded=0;whiteSpace=wrap;html=1;verticalAlign=top;" parent="1" vertex="1">
          <mxGeometry x="40" y="80" width="120" height="360" as="geometry" />
        </mxCell>
        <mxCell id="1LpmoRn-5bR33ExqMXOr-2" value="Hardware &lt;br&gt;(CPU, RAM, I/O)" style="rounded=0;whiteSpace=wrap;html=1;" parent="1" vertex="1">
          <mxGeometry x="40" y="380" width="120" height="60" as="geometry" />
        </mxCell>
        <mxCell id="1LpmoRn-5bR33ExqMXOr-3" value="Operating System" style="rounded=0;whiteSpace=wrap;html=1;" parent="1" vertex="1">
          <mxGeometry x="40" y="320" width="120" height="60" as="geometry" />
        </mxCell>
        <mxCell id="1LpmoRn-5bR33ExqMXOr-4" value="Browser" style="rounded=0;whiteSpace=wrap;html=1;verticalAlign=bottom;" parent="1" vertex="1">
          <mxGeometry x="60" y="180" width="80" height="60" as="geometry" />
        </mxCell>
        <mxCell id="1LpmoRn-5bR33ExqMXOr-5" value="Web App" style="rounded=0;whiteSpace=wrap;html=1;" parent="1" vertex="1">
          <mxGeometry x="70" y="190" width="60" height="30" as="geometry" />
        </mxCell>
        <mxCell id="1LpmoRn-5bR33ExqMXOr-6" value="Native App" style="rounded=0;whiteSpace=wrap;html=1;" parent="1" vertex="1">
          <mxGeometry x="60" y="250" width="80" height="60" as="geometry" />
        </mxCell>
        <mxCell id="1LpmoRn-5bR33ExqMXOr-9" value="Communication" style="rounded=0;whiteSpace=wrap;html=1;verticalAlign=top;" parent="1" vertex="1">
          <mxGeometry x="240" y="80" width="120" height="360" as="geometry" />
        </mxCell>
        <mxCell id="1LpmoRn-5bR33ExqMXOr-10" value="Physical Layer (Ethernet, Wireless, Cellular, etc.)" style="rounded=0;whiteSpace=wrap;html=1;" parent="1" vertex="1">
          <mxGeometry x="240" y="380" width="120" height="60" as="geometry" />
        </mxCell>
        <mxCell id="1LpmoRn-5bR33ExqMXOr-11" value="IP" style="rounded=0;whiteSpace=wrap;html=1;" parent="1" vertex="1">
          <mxGeometry x="240" y="340" width="120" height="40" as="geometry" />
        </mxCell>
        <mxCell id="1LpmoRn-5bR33ExqMXOr-12" value="TCP / UDP" style="rounded=0;whiteSpace=wrap;html=1;" parent="1" vertex="1">
          <mxGeometry x="240" y="300" width="120" height="40" as="geometry" />
        </mxCell>
        <mxCell id="1LpmoRn-5bR33ExqMXOr-13" value="Protocols (HTTP, WebSockets, etc.)" style="rounded=0;whiteSpace=wrap;html=1;" parent="1" vertex="1">
          <mxGeometry x="240" y="260" width="120" height="40" as="geometry" />
        </mxCell>
        <mxCell id="1LpmoRn-5bR33ExqMXOr-14" value="Web Services (REST, GraphQL, gRPC, etc.)" style="rounded=0;whiteSpace=wrap;html=1;" parent="1" vertex="1">
          <mxGeometry x="250" y="160" width="100" height="50" as="geometry" />
        </mxCell>
        <mxCell id="1LpmoRn-5bR33ExqMXOr-15" value="Messaging" style="rounded=0;whiteSpace=wrap;html=1;" parent="1" vertex="1">
          <mxGeometry x="250" y="110" width="100" height="40" as="geometry" />
        </mxCell>
        <mxCell id="1LpmoRn-5bR33ExqMXOr-16" value="Compute" style="rounded=0;whiteSpace=wrap;html=1;verticalAlign=top;" parent="1" vertex="1">
          <mxGeometry x="440" y="80" width="200" height="360" as="geometry" />
        </mxCell>
        <mxCell id="1LpmoRn-5bR33ExqMXOr-17" value="Hardware &lt;br&gt;(CPU, RAM)" style="rounded=0;whiteSpace=wrap;html=1;" parent="1" vertex="1">
          <mxGeometry x="440" y="400" width="200" height="40" as="geometry" />
        </mxCell>
        <mxCell id="1LpmoRn-5bR33ExqMXOr-18" value="Operating System" style="rounded=0;whiteSpace=wrap;html=1;" parent="1" vertex="1">
          <mxGeometry x="440" y="360" width="200" height="40" as="geometry" />
        </mxCell>
        <mxCell id="1LpmoRn-5bR33ExqMXOr-19" value="Virtual Machines" style="rounded=0;whiteSpace=wrap;html=1;" parent="1" vertex="1">
          <mxGeometry x="440" y="320" width="100" height="40" as="geometry" />
        </mxCell>
        <mxCell id="1LpmoRn-5bR33ExqMXOr-21" value="Container Orchestration" style="rounded=0;whiteSpace=wrap;html=1;" parent="1" vertex="1">
          <mxGeometry x="540" y="320" width="100" height="40" as="geometry" />
        </mxCell>
        <mxCell id="1LpmoRn-5bR33ExqMXOr-23" value="Data" style="rounded=0;whiteSpace=wrap;html=1;verticalAlign=top;" parent="1" vertex="1">
          <mxGeometry x="720" y="80" width="120" height="360" as="geometry" />
        </mxCell>
        <mxCell id="1LpmoRn-5bR33ExqMXOr-24" value="Storage Devices (HDD, SSD)" style="rounded=0;whiteSpace=wrap;html=1;" parent="1" vertex="1">
          <mxGeometry x="720" y="400" width="120" height="40" as="geometry" />
        </mxCell>
        <mxCell id="1LpmoRn-5bR33ExqMXOr-25" value="Storage Topology (DAS, NAS, SAN)" style="rounded=0;whiteSpace=wrap;html=1;" parent="1" vertex="1">
          <mxGeometry x="720" y="360" width="120" height="40" as="geometry" />
        </mxCell>
        <mxCell id="1LpmoRn-5bR33ExqMXOr-27" value="File System" style="rounded=0;whiteSpace=wrap;html=1;" parent="1" vertex="1">
          <mxGeometry x="720" y="320" width="120" height="40" as="geometry" />
        </mxCell>
        <mxCell id="1LpmoRn-5bR33ExqMXOr-28" value="Object Storage" style="rounded=0;whiteSpace=wrap;html=1;" parent="1" vertex="1">
          <mxGeometry x="730" y="270" width="100" height="40" as="geometry" />
        </mxCell>
        <mxCell id="1LpmoRn-5bR33ExqMXOr-29" value="Relational and NoSQL Databases" style="rounded=0;whiteSpace=wrap;html=1;" parent="1" vertex="1">
          <mxGeometry x="730" y="176" width="100" height="40" as="geometry" />
        </mxCell>
        <mxCell id="1LpmoRn-5bR33ExqMXOr-30" value="Big Data: Data Lake, Data Warehouse, Lakehouse" style="rounded=0;whiteSpace=wrap;html=1;" parent="1" vertex="1">
          <mxGeometry x="730" y="106" width="100" height="60" as="geometry" />
        </mxCell>
        <mxCell id="1LpmoRn-5bR33ExqMXOr-32" value="Containerized Applications" style="rounded=0;whiteSpace=wrap;html=1;" parent="1" vertex="1">
          <mxGeometry x="550" y="250" width="80" height="60" as="geometry" />
        </mxCell>
        <mxCell id="1LpmoRn-5bR33ExqMXOr-33" value="Data Serialization&lt;br&gt;(data in transit)" style="rounded=0;whiteSpace=wrap;html=1;" parent="1" vertex="1">
          <mxGeometry x="240" y="220" width="120" height="40" as="geometry" />
        </mxCell>
        <mxCell id="1LpmoRn-5bR33ExqMXOr-34" value="Data Serialization&lt;br&gt;(data at rest)" style="rounded=0;whiteSpace=wrap;html=1;" parent="1" vertex="1">
          <mxGeometry x="720" y="224" width="120" height="40" as="geometry" />
        </mxCell>
        <mxCell id="1LpmoRn-5bR33ExqMXOr-35" value="Native Applications" style="rounded=0;whiteSpace=wrap;html=1;" parent="1" vertex="1">
          <mxGeometry x="450" y="250" width="80" height="60" as="geometry" />
        </mxCell>
        <mxCell id="1LpmoRn-5bR33ExqMXOr-36" value="Services" style="rounded=0;whiteSpace=wrap;html=1;" parent="1" vertex="1">
          <mxGeometry x="450" y="185" width="180" height="50" as="geometry" />
        </mxCell>
        <mxCell id="1LpmoRn-5bR33ExqMXOr-37" value="" style="shape=flexArrow;endArrow=classic;startArrow=classic;html=1;rounded=0;entryX=0;entryY=0.5;entryDx=0;entryDy=0;exitX=1;exitY=0.5;exitDx=0;exitDy=0;" parent="1" source="1LpmoRn-5bR33ExqMXOr-16" target="1LpmoRn-5bR33ExqMXOr-23" edge="1">
          <mxGeometry width="100" height="100" relative="1" as="geometry">
            <mxPoint x="210" y="270" as="sourcePoint" />
            <mxPoint x="450" y="270" as="targetPoint" />
          </mxGeometry>
        </mxCell>
        <mxCell id="1LpmoRn-5bR33ExqMXOr-38" value="" style="shape=flexArrow;endArrow=classic;startArrow=classic;html=1;rounded=0;entryX=0;entryY=0.5;entryDx=0;entryDy=0;exitX=1;exitY=0.5;exitDx=0;exitDy=0;" parent="1" edge="1">
          <mxGeometry width="100" height="100" relative="1" as="geometry">
            <mxPoint x="360" y="259" as="sourcePoint" />
            <mxPoint x="440" y="259" as="targetPoint" />
          </mxGeometry>
        </mxCell>
        <mxCell id="1LpmoRn-5bR33ExqMXOr-39" value="" style="shape=flexArrow;endArrow=classic;startArrow=classic;html=1;rounded=0;entryX=0;entryY=0;entryDx=0;entryDy=0;exitX=1;exitY=0.5;exitDx=0;exitDy=0;" parent="1" source="1LpmoRn-5bR33ExqMXOr-1" target="1LpmoRn-5bR33ExqMXOr-13" edge="1">
          <mxGeometry width="100" height="100" relative="1" as="geometry">
            <mxPoint x="160" y="250" as="sourcePoint" />
            <mxPoint x="240" y="250" as="targetPoint" />
          </mxGeometry>
        </mxCell>
      </root>
    </mxGraphModel>
  </diagram>
</mxfile>
